<svg xmlns="http://www.w3.org/2000/svg" width="37.5" height="20.071" viewBox="0 0 37.5 20.071">
  <g id="Group_6" data-name="Group 6" transform="translate(-2.5 -24.5)">
    <path id="Path_5" data-name="Path 5" d="M53.177,38.246,49,37.694l-2.405-4.18A3.578,3.578,0,0,0,43.438,31.7H38.863a.791.791,0,0,0-.789.789V41.6H27.389a.791.791,0,0,0-.789.789v2.445a.791.791,0,0,0,.789.789h1.538a3.6,3.6,0,0,0,7.177,0h8.872a3.6,3.6,0,0,0,7.177,0h.828A1.624,1.624,0,0,0,54.6,44v-4.14A1.689,1.689,0,0,0,53.177,38.246Zm-20.662,9.03a1.893,1.893,0,0,1-1.893-1.893,1.919,1.919,0,0,1,1.893-1.893,1.893,1.893,0,0,1,1.893,1.893A1.919,1.919,0,0,1,32.515,47.276Zm13.525-9.7H40.835a.17.17,0,0,1-.158-.158V34.105a.17.17,0,0,1,.158-.158h2.6a1.331,1.331,0,0,1,1.183.71l1.538,2.721C46.237,37.457,46.158,37.575,46.04,37.575Zm2.484,9.7a1.893,1.893,0,0,1-1.893-1.893,1.893,1.893,0,0,1,3.785,0A1.893,1.893,0,0,1,48.524,47.276Z" transform="translate(-14.597 -4.361)" fill="#fff"/>
    <path id="Path_6" data-name="Path 6" d="M34.751,35.3V25.289a.791.791,0,0,0-.789-.789H23.789a.791.791,0,0,0-.789.789V35.3a.791.791,0,0,0,.789.789H33.962A.791.791,0,0,0,34.751,35.3Z" transform="translate(-12.416)" fill="#fff"/>
    <path id="Path_7" data-name="Path 7" d="M2.973,31.6H8.73a.456.456,0,0,0,.473-.473v-.749A.456.456,0,0,0,8.73,29.9H2.973a.456.456,0,0,0-.473.473v.749A.479.479,0,0,0,2.973,31.6Z" transform="translate(0 -3.271)" fill="#fff"/>
    <path id="Path_8" data-name="Path 8" d="M6.573,38.8h4.338a.456.456,0,0,0,.473-.473v-.749a.456.456,0,0,0-.473-.473H6.573a.456.456,0,0,0-.473.473v.749A.479.479,0,0,0,6.573,38.8Z" transform="translate(-2.18 -7.632)" fill="#fff"/>
    <path id="Path_9" data-name="Path 9" d="M10.173,46h2.918a.456.456,0,0,0,.473-.473v-.749a.456.456,0,0,0-.473-.473H10.173a.456.456,0,0,0-.473.473v.749A.479.479,0,0,0,10.173,46Z" transform="translate(-4.361 -11.992)" fill="#fff"/>
  </g>
</svg>
