<svg xmlns="http://www.w3.org/2000/svg" width="23.928" height="28.164" viewBox="0 0 23.928 28.164">
  <path id="Path_11" data-name="Path 11" d="M21.466,31.073a1.744,1.744,0,0,0,1.142,0C34.294,27.025,34.1,17.554,33.97,10.635c0-.7-.027-1.381-.027-2.035A1.744,1.744,0,0,0,32.2,6.857,11.855,11.855,0,0,1,23.252,3.5a1.744,1.744,0,0,0-2.43,0,11.9,11.9,0,0,1-8.95,3.362A1.744,1.744,0,0,0,10.128,8.6c0,.653,0,1.333-.027,2.032C9.969,17.554,9.79,27.025,21.466,31.073ZM13.589,10.7v-.422a14.873,14.873,0,0,0,8.447-3.206v20.5c-8.707-3.32-8.57-10.511-8.45-16.872Z" transform="translate(-10.072 -3.005)" fill="#fff"/>
</svg>
