<svg xmlns="http://www.w3.org/2000/svg" width="27.842" height="22.838" viewBox="0 0 27.842 22.838">
  <g id="Group_7" data-name="Group 7" transform="translate(-10.15 -14.078)">
    <path id="Path_10" data-name="Path 10" d="M36.591,17.21H11.552l3.04-2.952a.637.637,0,0,1,.446-.18H33.107a.637.637,0,0,1,.446.18Zm1.4,2.548V36.279a.637.637,0,0,1-.637.637H10.787a.637.637,0,0,1-.637-.637V19.757a.637.637,0,0,1,.637-.637H37.355a.637.637,0,0,1,.637.637ZM30.8,28.913a4.367,4.367,0,0,0-4.364-4.364h-5.83L21.656,23.5a.957.957,0,0,0-1.351-1.357l-2.682,2.689a.963.963,0,0,0-.21.312c0,.006,0,.006-.006.013a1.038,1.038,0,0,0-.064.35,1,1,0,0,0,.064.344.024.024,0,0,1,.006.019,1.037,1.037,0,0,0,.21.312l2.682,2.682a.955.955,0,0,0,1.351-1.351L20.605,26.46h5.83a2.453,2.453,0,0,1,0,4.906H18.3a.956.956,0,1,0,0,1.911h8.136A4.367,4.367,0,0,0,30.8,28.913Z" transform="translate(0 0)" fill="#fff"/>
  </g>
</svg>
