<svg height='100px' width='100px'  fill="#000000" xmlns="http://www.w3.org/2000/svg" xmlns:xlink="http://www.w3.org/1999/xlink" version="1.1" x="0px" y="0px" viewBox="0 0 100 100" enable-background="new 0 0 100 100" xml:space="preserve"><path fill="#000000" d="M50.122,13.765c-3.093,0-5.605,2.498-5.605,5.59c0,3.09,2.512,5.592,5.605,5.592  c3.083,0,5.585-2.502,5.585-5.592C55.707,16.263,53.205,13.765,50.122,13.765z"></path><path fill="#000000" d="M55.919,46.679l0.372-12.162l6.831,15.13c0.282,0.661,1.058,0.982,1.722,0.695  c0.676-0.287,0.989-1.053,0.706-1.728c0,0-4.81-15.052-6.185-17.852c-1.375-2.804-3.495-4.51-8.713-4.51H49.58  c-5.217,0-7.342,1.705-8.717,4.51c-1.366,2.8-6.176,17.852-6.176,17.852c-0.283,0.675,0.024,1.44,0.695,1.728  c0.67,0.287,1.445-0.034,1.712-0.695l6.841-15.13l0.372,12.162L43.23,77.258c-0.075,1.211,0.834,2.264,2.035,2.344  c0.06,0.01,0.115,0.01,0.16,0.01c1.146,0,2.114-0.883,2.204-2.047l2.478-25.183l2.506,25.183c0.07,1.162,1.043,2.047,2.18,2.047  c0.055,0,0.104,0,0.159-0.01c1.217-0.08,2.114-1.133,2.041-2.344L55.91,46.679H55.919z"></path><path fill="#000000" d="M18.763,37h-2c0,3,0.021,4.372,0.064,6.113l1.999-0.097C18.783,41.293,18.763,40,18.763,37z"></path><path fill="#000000" d="M81,37c0,3-0.02,4.34-0.062,6.063l1.998,0.003C82.98,41.325,83,40,83,37H81z"></path><rect x="57" y="7" fill="#000000" width="6" height="2"></rect><rect x="67" y="7" fill="#000000" width="6" height="2"></rect><rect x="47" y="7" fill="#000000" width="6" height="2"></rect><rect x="37" y="7" fill="#000000" width="6" height="2"></rect><rect x="27" y="7" fill="#000000" width="6" height="2"></rect><rect x="17" y="17" fill="#000000" width="2" height="6"></rect><rect x="17" y="27" fill="#000000" width="2" height="6"></rect><rect x="81" y="17" fill="#000000" width="2" height="6"></rect><rect x="81" y="27" fill="#000000" width="2" height="6"></rect><polygon fill="#000000" points="23,9 19,9 19,13 17,13 17,7 23,7 "></polygon><polygon fill="#000000" points="81,13 81,9 77,9 77,7 83,7 83,13 "></polygon><g><path fill="#000000" d="M39.219,85.182c1.477,1.152,3.096,2.373,4.814,3.627l1.179-1.615c-1.7-1.241-3.302-2.448-4.762-3.588   L39.219,85.182z"></path><path fill="#000000" d="M30.802,77.964c1.354,1.308,2.871,2.669,4.507,4.05l1.29-1.527c-1.603-1.354-3.086-2.687-4.408-3.961   L30.802,77.964z"></path><path fill="#000000" d="M18.812,59.273c0.577,2.031,1.288,3.914,2.174,5.754l1.802-0.867c-0.835-1.735-1.506-3.512-2.052-5.434   L18.812,59.273z"></path><path fill="#000000" d="M23.536,69.475c1.085,1.623,2.312,3.203,3.751,4.834l1.499-1.324c-1.379-1.562-2.553-3.074-3.588-4.621   L23.536,69.475z"></path><path fill="#000000" d="M19.047,48.104l-1.995,0.137c0.153,2.23,0.372,4.208,0.668,6.045l1.975-0.319   C19.407,52.191,19.196,50.273,19.047,48.104z"></path><path fill="#000000" d="M80.068,53.967l1.976,0.319c0.297-1.837,0.517-3.814,0.668-6.045l-1.995-0.137   C80.568,50.273,80.355,52.191,80.068,53.967z"></path><path fill="#000000" d="M70.979,72.984l1.498,1.322c1.439-1.63,2.666-3.211,3.752-4.832l-1.662-1.113   C73.529,69.909,72.357,71.422,70.979,72.984z"></path><path fill="#000000" d="M49.882,90.52c-0.207-0.146-0.916-0.789-1.12-0.934l-1.148,1.639c0.41,0.287,2.286,1.713,2.286,1.713   s1.857-1.504,2.268-1.791l-1.165-1.561C50.798,89.729,50.089,90.374,49.882,90.52z"></path><path fill="#000000" d="M76.977,64.16l1.803,0.867c0.886-1.84,1.597-3.723,2.174-5.754l-1.924-0.547   C78.482,60.648,77.812,62.425,76.977,64.16z"></path><path fill="#000000" d="M54.552,87.191l1.179,1.617c1.719-1.254,3.338-2.476,4.814-3.627l-1.23-1.576   C57.854,84.744,56.252,85.951,54.552,87.191z"></path><path fill="#000000" d="M63.165,80.484l1.29,1.529c1.636-1.382,3.152-2.744,4.507-4.051l-1.389-1.439   C66.251,77.8,64.768,79.133,63.165,80.484z"></path></g></svg>