<svg xmlns="http://www.w3.org/2000/svg" width="48.339" height="46.16" viewBox="0 0 48.339 46.16">
  <path id="Path_15" data-name="Path 15" d="M48.339,12.1,45.794,0,33.944,9.46H14.395L2.545,0,0,12.1l1.981,9.244L0,30.1,3.436,40.976,13.3,46.16l-2.971-3.985-.234-15.424,2.272-1.256,1.45,1.33,2.043-.942,1.8.8,2.091-1.139,1.778.826-1.83-2.239-1.832.9s-1.546-1.71-1.511-1.7l-.034-.008c.034.008-1.846,1.045-1.846,1.045s-1.529-1.992-1.5-1.982l-1.5,1.058s-1.5-1.56-1.51-1.567l2.576-4.881H35.8l2.576,4.881c0,.007-1.51,1.567-1.51,1.567l-1.5-1.058c.033-.011-1.5,1.982-1.5,1.982s-1.881-1.036-1.847-1.045l-.034.008c.034-.008-1.512,1.7-1.512,1.7l-1.832-.9-1.83,2.239,1.778-.826,2.091,1.139,1.8-.8,2.043.942,1.45-1.33,2.272,1.256L38.01,42.175,35.039,46.16,44.9,40.976,48.339,30.1l-1.981-8.752Z"/>
</svg>
